Coordinates
version=1
nRows=5
nColumns=40
inDegrees=yes

Units are S.I. units (second, meters, Newtons, ...)
Angles are in degrees.

endheader
time	pelvis_tilt	pelvis_list	pelvis_rotation	pelvis_tx	pelvis_ty	pelvis_tz	hip_flexion_r	hip_adduction_r	hip_rotation_r	knee_angle_r	knee_angle_r_beta	ankle_angle_r	subtalar_angle_r	mtp_angle_r	hip_flexion_l	hip_adduction_l	hip_rotation_l	knee_angle_l	knee_angle_l_beta	ankle_angle_l	subtalar_angle_l	mtp_angle_l	lumbar_extension	lumbar_bending	lumbar_rotation	arm_flex_r	arm_add_r	arm_rot_r	elbow_flex_r	pro_sup_r	wrist_flex_r	wrist_dev_r	arm_flex_l	arm_add_l	arm_rot_l	elbow_flex_l	pro_sup_l	wrist_flex_l	wrist_dev_l
     33.59250000	     -3.04350239	     -2.70342670	     -0.78611610	      1.03081247	      0.93274227	      0.44242522	     34.53859819	     -7.77330977	     -7.15031704	     60.44675699	     60.44675699	      4.32053333	    -15.81696121	      2.78463045	     10.49049332	     -3.19230110	    -11.29365027	     18.65829612	     18.65829612	     13.97113186	     -7.77183022	     -6.43551510	     -9.43203553	      2.44956544	     -0.28186654	      1.44278040	    -13.47326108	     -7.29313926	     53.22587250	     46.22593343	      0.00000000	      0.00000000	     19.81742496	    -12.19320441	      3.49991217	     41.23573044	     46.16188452	      0.00000000	      0.00000000
     33.60385714	     -2.88894180	     -2.81918805	     -1.08453764	      1.03022736	      0.93300036	      0.44222571	     34.83989090	     -7.39813900	     -7.05536292	     57.35015791	     57.35015791	      4.00235329	    -15.31754952	      3.01801900	      9.29555441	     -3.18827556	    -11.41295442	     17.93462157	     17.93462157	     14.27306763	     -7.78604759	     -6.55869857	     -9.71423748	      2.76985845	      0.22271270	     -0.48489172	    -13.86903353	     -7.38298447	     50.72495657	     46.30027040	      0.00000000	      0.00000000	     21.28527410	    -12.18238480	      3.23462078	     42.82026611	     46.21506974	      0.00000000	      0.00000000
     33.61521429	     -2.73332509	     -2.68009093	     -1.51377331	      1.02971963	      0.93301995	      0.44215014	     35.09365068	     -7.20178780	     -6.78946458	     54.06305800	     54.06305800	      3.59286385	    -14.71781175	      2.84806088	      7.99793618	     -2.87881943	    -11.65190522	     17.02709642	     17.02709642	     14.35093650	     -7.95232574	     -6.99129098	     -9.99090459	      2.73170275	      0.84101442	     -1.60339413	    -13.93624223	     -8.02324649	     45.93063816	     46.47979752	      0.00000000	      0.00000000	     22.57367245	    -12.28929103	      2.90176927	     45.20481459	     46.27609205	      0.00000000	      0.00000000
     33.62657143	     -2.69296357	     -2.76771787	     -1.82659544	      1.02931943	      0.93289785	      0.44207251	     35.15506960	     -6.85444526	     -6.95020940	     50.30848844	     50.30848844	      3.20012856	    -13.87757961	      2.89909815	      6.87383834	     -2.82220044	    -11.77884207	     16.20942732	     16.20942732	     14.50561832	     -8.02947189	     -7.33162092	    -10.10788032	      3.02072758	      0.95874116	     -2.76070638	    -14.04106205	     -8.52519470	     42.49445442	     46.61309166	      0.00000000	      0.00000000	     23.56129854	    -12.55245535	      2.59985504	     47.05942830	     46.32836368	      0.00000000	      0.00000000
     33.63792857	     -2.71097160	     -2.60698318	     -2.20105472	      1.02901157	      0.93241752	      0.44216584	     35.16975313	     -6.68092934	     -7.03286796	     46.30114276	     46.30114276	      2.19971176	    -13.13248309	      1.12221213	      5.68130821	     -2.43559009	    -11.77926063	     15.06665243	     15.06665243	     13.91928501	     -8.75347090	     -8.95266483	    -10.06213864	      2.92535536	     -0.12738785	     -0.86279673	    -13.22909158	    -11.07533579	     33.14954889	     47.06466737	      0.00000000	      0.00000000	     23.08025149	    -13.94937275	      1.65053662	     51.40557959	     46.44317791	      0.00000000	      0.00000000
